<svg xmlns="http://www.w3.org/2000/svg" viewBox="0 0 101.26 65.65">
  <g>
    <polygon class="cls-1"
      points="98.57 37.45 95.75 34.63 97.28 33.11 97.28 26.73 50.63 4.42 3.99 26.73 3.99 33.11 5.52 34.63 2.7 37.45 0 34.76 0 24.21 50.63 0 101.26 24.21 101.26 34.76 98.57 37.45" />
    <polygon class="cls-1"
      points="50.63 48.83 9.97 29.39 11.7 25.79 50.63 44.41 89.57 25.79 91.29 29.39 50.63 48.83" />
    <polygon class="cls-1"
      points="50.63 62.44 43.42 58.99 45.14 55.39 50.63 58.02 56.12 55.4 57.84 58.99 50.63 62.44" />
    <polygon class="cls-1"
      points="42.05 65.65 38.06 65.65 38.06 54.25 42.88 49.44 45.7 52.26 42.05 55.91 42.05 65.65" />
    <polygon class="cls-1"
      points="33.59 61.42 29.61 61.42 29.61 50.02 34.42 45.21 37.24 48.03 33.59 51.67 33.59 61.42" />
    <polygon class="cls-1"
      points="25.13 57.19 21.15 57.19 21.15 45.79 25.96 40.98 28.78 43.8 25.13 47.44 25.13 57.19" />
    <polygon class="cls-1"
      points="16.67 52.96 12.69 52.96 12.69 41.56 17.5 36.75 20.32 39.57 16.67 43.22 16.67 52.96" />
    <polygon class="cls-1" points="8.22 48.73 4.23 48.73 4.23 37.34 9.04 32.52 11.86 35.34 8.22 38.98 8.22 48.73" />
    <polygon class="cls-1"
      points="63.2 65.65 59.21 65.65 59.21 55.91 55.57 52.26 58.39 49.44 63.2 54.25 63.2 65.65" />
    <polygon class="cls-1"
      points="71.66 61.42 67.67 61.42 67.67 51.67 64.03 48.03 66.84 45.21 71.66 50.02 71.66 61.42" />
    <polygon class="cls-1"
      points="80.12 57.19 76.13 57.19 76.13 47.44 72.48 43.8 75.3 40.98 80.12 45.79 80.12 57.19" />
    <polygon class="cls-1"
      points="88.58 52.96 84.59 52.96 84.59 43.22 80.94 39.57 83.76 36.75 88.58 41.56 88.58 52.96" />
    <polygon class="cls-1"
      points="97.03 48.73 93.05 48.73 93.05 38.98 89.4 35.34 92.22 32.52 97.03 37.34 97.03 48.73" />
  </g>
</svg>
