<svg xmlns="http://www.w3.org/2000/svg" viewBox="0 0 102 82.06">
  <g>
    <path class="cls-1"
      d="M97.68,73.08v.12a4.55,4.55,0,0,1-4.55,4.54l-84.26,0a4.55,4.55,0,0,1-4.55-4.55V73l93.36,0M102,68.76,0,68.71v4.44A8.87,8.87,0,0,0,8.87,82l84.25,0A8.87,8.87,0,0,0,102,73.2V68.76Z" />
    <rect class="cls-1" x="44.34" y="73.23" width="13.31" height="4.32" />
    <path class="cls-1"
      d="M8.81,68.72H4.49l0-51a6.59,6.59,0,0,1,6.6-6.59H33.29v4.32l-22.18,0a2.28,2.28,0,0,0-2.27,2.28Z" />
    <path class="cls-1"
      d="M97.51,68.76H93.19l0-51a2.28,2.28,0,0,0-2.27-2.28H68.77V11.15H90.94a6.61,6.61,0,0,1,6.59,6.6Z" />
    <path class="cls-1"
      d="M68.88,28.72l0,22.4H33.16V28.7l35.71,0M71,24.4l-39.91,0a2.21,2.21,0,0,0-2.22,2.22l0,26.61a2.22,2.22,0,0,0,2.22,2.21l39.91,0a2.21,2.21,0,0,0,2.22-2.21l0-26.61A2.22,2.22,0,0,0,71,24.4Z" />
    <path class="cls-1"
      d="M51,4.32c5,0,9,3.54,9,7.88v7.88H42V12.19c0-4.34,4-7.87,9-7.87M51,0c-7.34,0-13.3,5.45-13.31,12.19V24.38l26.61,0V12.2C64.34,5.47,58.38,0,51,0Z" />
  </g>
</svg>
