<svg xmlns="http://www.w3.org/2000/svg" viewBox="0 0 72.34 102">
  <g>
    <path class="cls-1"
      d="M43.28,28.1c0,.17,0,.33,0,.5V50.72H65.58v3.69H43.32V70.1l-3.74-3.22V29.35L43,28.22a1.08,1.08,0,0,0,.24-.12Z" />
    <path class="cls-2"
      d="M44.48,77.77A27.86,27.86,0,1,1,72.34,49.91,27.89,27.89,0,0,1,44.48,77.77Zm0-51.64A23.78,23.78,0,1,0,68.26,49.91,23.8,23.8,0,0,0,44.48,26.13Z" />
    <path class="cls-2"
      d="M52.09,102H6.39A6.4,6.4,0,0,1,0,95.61V6.39A6.4,6.4,0,0,1,6.39,0h45.7a6.4,6.4,0,0,1,6.39,6.39V20.15H54.4V6.39a2.31,2.31,0,0,0-2.31-2.31H6.39A2.3,2.3,0,0,0,4.08,6.39V95.61a2.3,2.3,0,0,0,2.31,2.31h45.7a2.31,2.31,0,0,0,2.31-2.31V79.67h4.08V95.61A6.4,6.4,0,0,1,52.09,102Z" />
    <rect class="cls-2" x="2.04" y="84.87" width="54.4" height="4.08" />
    <rect class="cls-2" x="2.04" y="10.88" width="54.4" height="4.08" />
    <rect class="cls-2" x="25.98" y="91.4" width="6.53" height="4.08" />
  </g>
</svg>
