<svg xmlns="http://www.w3.org/2000/svg" viewBox="0 0 102 61.59">
  <path d="M85,27.65a15.71,15.71,0,0,0-2.17.14V27.6A17,17,0,0,0,57.07,13.11a23.34,23.34,0,0,0-43.84,15A17,17,0,0,0,17,61.59H85a17,17,0,0,0,0-33.94Zm0,29.77H17a12.79,12.79,0,0,1-1-25.55h.15a12.73,12.73,0,0,1,4.6.51l1.23-4a16.7,16.7,0,0,0-4.49-.66,19.6,19.6,0,0,1-.56-4.37A19.18,19.18,0,0,1,54.2,17l.21.6a19.67,19.67,0,0,1,.8,3.79L59.35,21a24.37,24.37,0,0,0-.75-3.86A12.72,12.72,0,0,1,78.69,27.6,12.85,12.85,0,0,1,78.45,30v.08a12.68,12.68,0,0,1-1.58,4.08l3.57,2.15a16.58,16.58,0,0,0,1.74-4.17A12.53,12.53,0,0,1,85,31.81a12.81,12.81,0,0,1,0,25.61Z" />
</svg>
