<?xml version="1.0" encoding="UTF-8"?> <svg xmlns="http://www.w3.org/2000/svg" xmlns:xlink="http://www.w3.org/1999/xlink" id="Layer_1" data-name="Layer 1" width="80" height="80" viewBox="0 0 80 80"><defs><style>.cls-1,.cls-2,.cls-3{fill:#1ff1fc;}.cls-2{clip-path:url(#clip-path);}.cls-3{clip-path:url(#clip-path-2);}.cls-4{clip-path:url(#clip-path-3);}.cls-5{clip-path:url(#clip-path-4);}.cls-6{clip-path:url(#clip-path-5);}.cls-7{clip-path:url(#clip-path-7);}.cls-8{clip-path:url(#clip-path-9);}.cls-9{clip-path:url(#clip-path-11);}</style><clipPath id="clip-path"><path class="cls-1" d="M46.9774,41.3774a2.7862,2.7862,0,0,0-1.1486-2.0249,3.4018,3.4018,0,0,0-2.1225-.7184c-1.8085,0-3.108,1.9028-3.3025,3.76a7.0989,7.0989,0,0,0,.4939,3.5658,3.3619,3.3619,0,0,0,1.1594,1.5133,3.6789,3.6789,0,0,0,1.7339.5513,3.9479,3.9479,0,0,0,2.0378-.5513,2.8048,2.8048,0,0,0,1.1486-2.1291C47.0775,44.5443,46.9774,42.0092,46.9774,41.3774Z"></path></clipPath><clipPath id="clip-path-2"><path class="cls-1" d="M66.5484,41.31A3.673,3.673,0,0,0,65.4,39.2854a3.4018,3.4018,0,0,0-2.1225-.7184c-1.8085,0-3.108,1.9028-3.3025,3.76a7.0989,7.0989,0,0,0,.4939,3.5658,3.361,3.361,0,0,0,1.1594,1.5132,3.6753,3.6753,0,0,0,1.7339.5514A3.9471,3.9471,0,0,0,65.4,47.4057a2.8042,2.8042,0,0,0,1.1485-2.1291A35.73,35.73,0,0,0,66.5484,41.31Z"></path></clipPath><clipPath id="clip-path-3"><path class="cls-2" d="M52.2158,27.28V51.89h-4.328l-.4936-2.45a4.8529,4.8529,0,0,1-3.1757,2.45c-1.9014.3757-4.1762.5639-6.1847-1.31s-2.8245-3.18-2.8684-8.3985a7.7133,7.7133,0,0,1,6.8825-7.5984c2.0437,0,3.3237,0,4.9985,1.9906V27.28Z"></path></clipPath><clipPath id="clip-path-4"><rect class="cls-1" x="4.4585" y="2.0876" width="73.8212" height="73.8212"></rect></clipPath><clipPath id="clip-path-5"><path class="cls-1" d="M12.3953,51.795V38.8573H9.248V35.0138H12.29V32.6793q.5229-4.4194,3.4305-5.9067a10.0969,10.0969,0,0,1,7.61-.5133l-1.3441,4.3082a7.6127,7.6127,0,0,0-2.0486-.2424,2.3362,2.3362,0,0,0-2.3991,2.3542v2.3345h3.22v3.9237h-3.22V51.795Z"></path></clipPath><clipPath id="clip-path-7"><polygon class="cls-1" points="22.401 35.046 32.756 35.046 32.756 51.811 30.95 51.811 30.95 44.551 29.546 44.551 29.546 51.811 27.527 51.811 27.527 44.515 27.527 38.998 22.401 38.998 22.401 35.046"></polygon></clipPath><clipPath id="clip-path-9"><circle class="cls-1" cx="30.0498" cy="29.6475" r="2.9528"></circle></clipPath><clipPath id="clip-path-11"><circle class="cls-3" cx="63.5155" cy="43.4275" r="8.8585"></circle></clipPath></defs><title>Blue</title><path class="cls-1" d="M46.9774,41.3774a2.7862,2.7862,0,0,0-1.1486-2.0249,3.4018,3.4018,0,0,0-2.1225-.7184c-1.8085,0-3.108,1.9028-3.3025,3.76a7.0989,7.0989,0,0,0,.4939,3.5658,3.3619,3.3619,0,0,0,1.1594,1.5133,3.6789,3.6789,0,0,0,1.7339.5513,3.9479,3.9479,0,0,0,2.0378-.5513,2.8048,2.8048,0,0,0,1.1486-2.1291C47.0775,44.5443,46.9774,42.0092,46.9774,41.3774Z"></path><path class="cls-1" d="M52.2158,27.28V51.89h-4.328l-.4936-2.45a4.8529,4.8529,0,0,1-3.1757,2.45c-1.9014.3757-4.1762.5639-6.1847-1.31s-2.8245-3.18-2.8684-8.3985a7.7133,7.7133,0,0,1,6.8825-7.5984c2.0437,0,3.3237,0,4.9985,1.9906V27.28Z"></path><g class="cls-4"><rect class="cls-1" x="4.4585" y="2.0876" width="73.8212" height="73.8212"></rect><g class="cls-5"><rect class="cls-1" x="30.2437" y="22.3583" width="26.8935" height="34.698"></rect></g></g><path class="cls-1" d="M12.3953,51.795V38.8573H9.248V35.0138H12.29V32.6793q.5229-4.4194,3.4305-5.9067a10.0969,10.0969,0,0,1,7.61-.5133l-1.3441,4.3082a7.6127,7.6127,0,0,0-2.0486-.2424,2.3362,2.3362,0,0,0-2.3991,2.3542v2.3345h3.22v3.9237h-3.22V51.795Z"></path><g class="cls-6"><rect class="cls-1" x="4.4585" y="2.0876" width="73.8212" height="73.8212"></rect><g class="cls-5"><rect class="cls-1" x="4.3266" y="20.8272" width="23.9253" height="35.8892"></rect></g></g><polygon class="cls-1" points="22.401 35.046 32.756 35.046 32.756 51.811 30.95 51.811 30.95 44.551 29.546 44.551 29.546 51.811 27.527 51.811 27.527 44.515 27.527 38.998 22.401 38.998 22.401 35.046"></polygon><g class="cls-7"><rect class="cls-1" x="4.4585" y="2.0876" width="73.8212" height="73.8212"></rect><g class="cls-5"><rect class="cls-1" x="17.4798" y="30.1247" width="20.1973" height="26.6074"></rect></g></g><circle class="cls-1" cx="30.0498" cy="29.6475" r="2.9528"></circle><g class="cls-8"><rect class="cls-1" x="4.4585" y="2.0876" width="73.8212" height="73.8212"></rect><g class="cls-5"><rect class="cls-1" x="22.1756" y="21.7732" width="15.7485" height="15.7485"></rect></g></g><path class="cls-1" d="M66.5484,41.31A3.673,3.673,0,0,0,65.4,39.2854a3.4018,3.4018,0,0,0-2.1225-.7184c-1.8085,0-3.108,1.9028-3.3025,3.76a7.0989,7.0989,0,0,0,.4939,3.5658,3.361,3.361,0,0,0,1.1594,1.5132,3.6753,3.6753,0,0,0,1.7339.5514A3.9471,3.9471,0,0,0,65.4,47.4057a2.8042,2.8042,0,0,0,1.1485-2.1291A35.73,35.73,0,0,0,66.5484,41.31Z"></path><circle class="cls-1" cx="63.5155" cy="43.4275" r="8.8585"></circle><g class="cls-9"><rect class="cls-1" x="4.4585" y="2.0876" width="73.8212" height="73.8212"></rect><g class="cls-5"><rect class="cls-1" x="49.7355" y="29.6475" width="27.5599" height="27.5599"></rect></g></g></svg> 