<?xml version="1.0" encoding="UTF-8"?> <svg xmlns="http://www.w3.org/2000/svg" id="Layer_1" data-name="Layer 1" width="80" height="80" viewBox="0 0 80 80"><defs><style>.cls-1{fill:#1ff1fc;}</style></defs><title>Blue</title><path class="cls-1" d="M21.0674,69.3789l-.2832-1.9805A30.56,30.56,0,0,0,42.2783,53.377l1.7031,1.0488A32.5858,32.5858,0,0,1,21.0674,69.3789Z"></path><path class="cls-1" d="M45.4824,51.3691l-1.8066-.8574A29.8167,29.8167,0,0,0,46.57,37.6182h2A31.8038,31.8038,0,0,1,45.4824,51.3691Z"></path><path class="cls-1" d="M63.374,50.94h-2V37.6182a21.0275,21.0275,0,0,0-4.2383-12.7217l1.6-1.2012A23.0177,23.0177,0,0,1,63.374,37.6182Z"></path><path class="cls-1" d="M54.585,22.0674a21.2069,21.2069,0,0,0-28.5518-.2549l-1.334-1.49a23.2066,23.2066,0,0,1,31.2451.2783Z"></path><path class="cls-1" d="M18.9648,39.0986h-2v-1.48a23.0168,23.0168,0,0,1,4.64-13.9239l1.6,1.2012a21.0277,21.0277,0,0,0-4.2393,12.7227Z"></path><path class="cls-1" d="M48.57,37.6182h-2a6.4013,6.4013,0,0,0-11.5224-3.8409l-1.6-1.2011A8.4017,8.4017,0,0,1,48.57,37.6182Z"></path><path class="cls-1" d="M16.4854,54.9014v-2A15.3,15.3,0,0,0,31.7676,37.6182v-1.48h2v1.48A17.3023,17.3023,0,0,1,16.4854,54.9014Z"></path><path class="cls-1" d="M63.8535,59.3418a9.8921,9.8921,0,0,1-9.8808-9.8809l-.001-11.8427a13.6786,13.6786,0,0,0-2.76-8.2813l1.6-1.2012a15.6661,15.6661,0,0,1,3.16,9.4825l.001,11.8427a7.89,7.89,0,0,0,7.8808,7.8809Z"></path><path class="cls-1" d="M48.45,26.5752a13.6805,13.6805,0,0,0-8.2813-2.76,11.95,11.95,0,0,0-5.4316,1.3526l-.9785-1.7442a13.8924,13.8924,0,0,1,6.41-1.6084,15.6682,15.6682,0,0,1,9.4825,3.16Z"></path><path class="cls-1" d="M16.4854,47.5v-2a7.89,7.89,0,0,0,7.8808-7.8818,15.834,15.834,0,0,1,4.7276-11.0625l1.4277,1.4a13.85,13.85,0,0,0-4.1553,9.6621A9.8923,9.8923,0,0,1,16.4854,47.5Z"></path><path class="cls-1" d="M60.6924,67.4814c-4.71-.9687-8.48-3.8173-11.8643-8.9628l1.6719-1.1c3.0732,4.6739,6.44,7.2491,10.5947,8.1036Z"></path><path class="cls-1" d="M28.5078,74.502l-.3613-1.9668a28.4539,28.4539,0,0,0,11.74-5.6123,7.0576,7.0576,0,0,1,8.9766.3593,30.0442,30.0442,0,0,0,6.5469,4.39l-.877,1.7969a32.0785,32.0785,0,0,1-6.9893-4.6827,5.07,5.07,0,0,0-6.4541-.2656A30.4043,30.4043,0,0,1,28.5078,74.502Z"></path><path class="cls-1" d="M34.41,54.5889l-1.4512-1.375a22.5937,22.5937,0,0,0,6.21-15.5957v-1.48h2v1.48A24.581,24.581,0,0,1,34.41,54.5889Z"></path><path class="cls-1" d="M16.4844,62.3027v-2a22.5265,22.5265,0,0,0,13.2265-4.2519l1.168,1.623A24.51,24.51,0,0,1,16.4844,62.3027Z"></path><path class="cls-1" d="M61.9072,19.0234a28.0225,28.0225,0,0,0-30.32-8.5771l-.6-1.9082a30.023,30.023,0,0,1,32.4395,9.1846Z"></path><path class="cls-1" d="M18.43,19.0244l-1.52-1.3008A31.3987,31.3987,0,0,1,26.3965,10.08l.9,1.7851A29.4047,29.4047,0,0,0,18.43,19.0244Z"></path></svg> 