<?xml version="1.0" encoding="UTF-8"?>
<svg width="75px" height="75px" viewBox="0 0 75 75" version="1.1" xmlns="http://www.w3.org/2000/svg" xmlns:xlink="http://www.w3.org/1999/xlink">
    <!-- Generator: Sketch 50.2 (55047) - http://www.bohemiancoding.com/sketch -->
    <title>lock-dark-icn</title>
    <desc>Created with Sketch.</desc>
    <defs></defs>
    <g id="lock-dark-icn" stroke="none" stroke-width="1" fill="none" fill-rule="evenodd">
        <g id="noun_Lock_1840905" transform="translate(17.000000, 8.000000)" fill="#011638" fill-rule="nonzero">
            <path d="M37.5,24 L36,24 L36,15 C36,6.71572875 29.2842712,0 21,0 C12.7157288,-1.33226763e-15 6,6.71572875 6,15 L6,24 L4.5,24 C2.01471863,24 0,26.0147186 0,28.5 L0,55.5 C0,57.9852814 2.01471863,60 4.5,60 L37.5,60 C39.9852814,60 42,57.9852814 42,55.5 L42,28.5 C42,26.0147186 39.9852814,24 37.5,24 Z M9,15 C9,8.372583 14.372583,3 21,3 C27.627417,3 33,8.372583 33,15 L33,24 L9,24 L9,15 Z M39,55.5 C39,56.3284271 38.3284271,57 37.5,57 L4.5,57 C3.67157288,57 3,56.3284271 3,55.5 L3,28.5 C3,27.6715729 3.67157288,27 4.5,27 L37.5,27 C38.3284271,27 39,27.6715729 39,28.5 L39,55.5 Z M21,33 C16.0294373,33 12,37.0294373 12,42 C12,46.9705627 16.0294373,51 21,51 C25.9705627,51 30,46.9705627 30,42 C30,37.0294373 25.9705627,33 21,33 Z M21,48 C17.6862915,48 15,45.3137085 15,42 C15,38.6862915 17.6862915,36 21,36 C24.3137085,36 27,38.6862915 27,42 C27,45.3137085 24.3137085,48 21,48 Z" id="Shape"></path>
        </g>
    </g>
</svg>