<?xml version="1.0" encoding="UTF-8"?> <svg xmlns="http://www.w3.org/2000/svg" id="Layer_1" data-name="Layer 1" width="80" height="80" viewBox="0 0 80 80"><defs><style>.cls-1{fill:#021637;}</style></defs><title>Navy</title><polygon class="cls-1" points="24.43 35.393 19.661 35.393 13.856 29.588 7.014 29.588 7.014 27.588 14.685 27.588 20.489 33.393 24.43 33.393 24.43 35.393"></polygon><rect class="cls-1" x="7.0137" y="39.1982" width="17.416" height="2"></rect><polygon class="cls-1" points="14.566 52.809 7.014 52.809 7.014 50.809 13.732 50.809 19.478 45.004 24.43 45.004 24.43 47.004 20.312 47.004 14.566 52.809"></polygon><rect class="cls-1" x="39.3936" y="54.7119" width="2" height="18.8667"></rect><polygon class="cls-1" points="53.005 73.579 51.005 73.579 51.005 65.371 45.199 61.017 45.199 54.712 47.199 54.712 47.199 60.017 53.005 64.371 53.005 73.579"></polygon><polygon class="cls-1" points="29.783 73.579 27.783 73.579 27.783 64.371 33.589 60.017 33.589 54.712 35.589 54.712 35.589 61.017 29.783 65.371 29.783 73.579"></polygon><rect class="cls-1" x="39.3936" y="6.8179" width="2" height="18.8672"></rect><polygon class="cls-1" points="47.199 25.685 45.199 25.685 45.199 19.38 51.005 15.026 51.005 6.818 53.005 6.818 53.005 16.026 47.199 20.38 47.199 25.685"></polygon><polygon class="cls-1" points="35.589 25.685 33.589 25.685 33.589 20.38 27.783 16.026 27.783 6.818 29.783 6.818 29.783 15.026 35.589 19.38 35.589 25.685"></polygon><path class="cls-1" d="M57.3584,55.7119H23.43V24.6851H57.3584Zm-31.9287-2H55.3584V26.6851H25.43Z"></path><path class="cls-1" d="M45.748,47.0039H35.04V33.3931H45.748Zm-8.708-2h6.708V35.3931H37.04Z"></path><rect class="cls-1" x="29.2344" y="32.9419" width="2" height="2.9028"></rect><rect class="cls-1" x="29.2344" y="38.7471" width="2" height="2.9028"></rect><rect class="cls-1" x="29.2344" y="44.5522" width="2" height="2.9028"></rect><rect class="cls-1" x="49.5527" y="32.9419" width="2" height="2.9028"></rect><rect class="cls-1" x="49.5527" y="38.7471" width="2" height="2.9028"></rect><rect class="cls-1" x="49.5527" y="44.5522" width="2" height="2.9028"></rect><polygon class="cls-1" points="61.126 35.393 56.358 35.393 56.358 33.393 60.298 33.393 66.104 27.588 73.774 27.588 73.774 29.588 66.932 29.588 61.126 35.393"></polygon><rect class="cls-1" x="56.3584" y="39.1982" width="17.416" height="2"></rect><polygon class="cls-1" points="73.774 52.809 66.222 52.809 60.476 47.004 56.358 47.004 56.358 45.004 61.31 45.004 67.056 50.809 73.774 50.809 73.774 52.809"></polygon><polygon class="cls-1" points="54.456 25.685 52.456 25.685 52.456 22.369 58.261 16.563 58.261 12.624 60.261 12.624 60.261 17.392 54.456 23.197 54.456 25.685"></polygon><polygon class="cls-1" points="28.332 25.685 26.332 25.685 26.332 23.197 20.526 17.392 20.526 12.624 22.526 12.624 22.526 16.563 28.332 22.369 28.332 25.685"></polygon><polygon class="cls-1" points="60.261 67.773 58.261 67.773 58.261 63.833 52.456 58.028 52.456 54.712 54.456 54.712 54.456 57.2 60.261 63.005 60.261 67.773"></polygon><polygon class="cls-1" points="22.526 67.773 20.526 67.773 20.526 63.005 26.332 57.2 26.332 54.712 28.332 54.712 28.332 58.028 22.526 63.833 22.526 67.773"></polygon></svg> 