<?xml version="1.0" encoding="UTF-8"?> <svg xmlns="http://www.w3.org/2000/svg" id="Layer_1" data-name="Layer 1" width="80" height="80" viewBox="0 0 80 80"><defs><style>.cls-1{fill:#021637;}</style></defs><title>Navy</title><path class="cls-1" d="M52.7627,65.959a15.501,15.501,0,1,1,15.501-15.501A15.519,15.519,0,0,1,52.7627,65.959Zm0-29.002a13.501,13.501,0,1,0,13.501,13.501A13.5165,13.5165,0,0,0,52.7627,36.957Z"></path><rect class="cls-1" x="61.4629" y="49.458" width="11.6016" height="2"></rect><rect class="cls-1" x="32.4609" y="49.458" width="11.6006" height="2"></rect><rect class="cls-1" x="51.7627" y="59.1592" width="2" height="11.6016"></rect><rect class="cls-1" x="51.7627" y="30.1572" width="2" height="11.6006"></rect><rect class="cls-1" x="51.7627" y="49.0078" width="2" height="2.9004"></rect><polygon class="cls-1" points="33.911 57.259 3.908 57.259 3.908 8.854 65.363 8.854 65.363 34.507 63.363 34.507 63.363 10.854 5.908 10.854 5.908 55.259 33.911 55.259 33.911 57.259"></polygon><path class="cls-1" d="M28.1113,41.65a2.4477,2.4477,0,0,1-1.208-.3223A2.4217,2.4217,0,0,1,25.66,39.1963V26.917a2.45,2.45,0,0,1,3.7109-2.1006l10.2324,6.14a2.4494,2.4494,0,0,1,0,4.2011l-10.2324,6.14A2.4457,2.4457,0,0,1,28.1113,41.65Zm.001-15.1856a.4528.4528,0,0,0-.2236.0606.4344.4344,0,0,0-.2285.3916V39.1963a.45.45,0,0,0,.6816.3857l10.2334-6.14a.4505.4505,0,0,0,0-.7715l-10.2334-6.14A.435.435,0,0,0,28.1123,26.4648Z"></path></svg> 