<?xml version="1.0" encoding="UTF-8"?> <svg xmlns="http://www.w3.org/2000/svg" id="Layer_1" data-name="Layer 1" width="80" height="80" viewBox="0 0 80 80"><defs><style>.cls-1{fill:#021637;}</style></defs><title>Navy</title><rect class="cls-1" x="6.8135" y="39.1753" width="12.1563" height="2"></rect><rect class="cls-1" x="10.342" y="52.3446" width="12.1569" height="2.0003" transform="translate(-24.4689 15.3533) rotate(-29.9947)"></rect><rect class="cls-1" x="19.9823" y="61.9849" width="12.1564" height="2.0003" transform="translate(-41.5173 54.0679) rotate(-60.0053)"></rect><rect class="cls-1" x="38.2305" y="60.4355" width="2" height="12.1563"></rect><rect class="cls-1" x="51.3993" y="56.9069" width="2.0003" height="12.1564" transform="translate(-24.4721 34.6374) rotate(-29.9995)"></rect><rect class="cls-1" x="61.0399" y="47.2667" width="2.0003" height="12.156" transform="translate(-15.1782 80.3997) rotate(-59.9993)"></rect><rect class="cls-1" x="59.4902" y="39.1753" width="12.1563" height="2"></rect><rect class="cls-1" x="55.962" y="26.0062" width="12.156" height="2.0003" transform="translate(-5.1921 34.6319) rotate(-29.9947)"></rect><rect class="cls-1" x="15.4202" y="20.9279" width="2.0003" height="12.1569" transform="translate(-15.178 27.7246) rotate(-60.0016)"></rect><path class="cls-1" d="M39.2305,54.6821A14.3524,14.3524,0,0,1,24.7236,40.1753a18.429,18.429,0,0,1,4.0869-11.437c.2676-.3286.5293-.6333.78-.9243,1.1358-1.32,1.8858-2.1914,1.8858-3.8467V21.2656h2v2.7017c0,2.3974-1.1514,3.7348-2.37,5.1514-.2392.2778-.4892.5683-.7451.8823a16.6316,16.6316,0,0,0-3.6377,10.1743A12.3741,12.3741,0,0,0,39.2305,52.6821Z"></path><path class="cls-1" d="M39.2305,54.6821v-2A12.374,12.374,0,0,0,51.7373,40.1753,16.631,16.631,0,0,0,48.1,30.001c-.2558-.314-.5068-.605-.7461-.8833-1.2187-1.416-2.37-2.7534-2.37-5.15V21.2656h2v2.7017c0,1.6548.75,2.5264,1.8857,3.8457.251.2915.5137.5962.7813.9253a18.429,18.429,0,0,1,4.0869,11.437A14.3524,14.3524,0,0,1,39.2305,54.6821Z"></path><polygon class="cls-1" points="48.334 22.266 39.23 22.266 39.23 20.266 46.334 20.266 46.334 12.811 32.126 12.811 32.126 20.266 35.178 20.266 35.178 22.266 30.126 22.266 30.126 10.811 48.334 10.811 48.334 22.266"></polygon></svg> 