<?xml version="1.0" encoding="UTF-8"?> <svg xmlns="http://www.w3.org/2000/svg" id="Layer_1" data-name="Layer 1" width="80" height="80" viewBox="0 0 80 80"><defs><style>.cls-1{fill:#021637;}</style></defs><title>Navy</title><path class="cls-1" d="M40.0679,41.6416a9.5355,9.5355,0,0,1-9.7491-9.749v-4.374A9.5355,9.5355,0,0,1,40.0679,17.77a9.5354,9.5354,0,0,1,9.749,9.7491v4.374A9.5354,9.5354,0,0,1,40.0679,41.6416Zm0-21.8721a7.4947,7.4947,0,0,0-7.7491,7.7491v4.374a7.4947,7.4947,0,0,0,7.7491,7.749,7.4947,7.4947,0,0,0,7.749-7.749v-4.374A7.4947,7.4947,0,0,0,40.0679,19.77Z"></path><path class="cls-1" d="M58.5659,62.5146h-2v-7.291c0-5.6211-10.833-9.207-16.498-9.207S23.57,49.6025,23.57,55.2236v7.291h-2v-7.291c0-7.2509,12.22-11.207,18.4981-11.207s18.498,3.9561,18.498,11.207Z"></path><path class="cls-1" d="M40.0679,73.7217a33.08,33.08,0,1,1,33.08-33.08A33.1174,33.1174,0,0,1,40.0679,73.7217Zm0-64.1592a31.08,31.08,0,1,0,31.08,31.0791A31.1149,31.1149,0,0,0,40.0679,9.5625Z"></path></svg> 