<?xml version="1.0" encoding="UTF-8"?> <svg xmlns="http://www.w3.org/2000/svg" id="Layer_1" data-name="Layer 1" width="80" height="80" viewBox="0 0 80 80"><defs><style>.cls-1{fill:#021637;}</style></defs><title>Navy</title><polygon class="cls-1" points="56.345 36.683 54.345 36.683 54.345 26.081 46.194 26.081 46.194 36.683 44.194 36.683 44.194 24.081 56.345 24.081 56.345 36.683"></polygon><rect class="cls-1" x="44.1943" y="45.3828" width="2" height="17.4023"></rect><rect class="cls-1" x="54.3452" y="45.3828" width="2" height="17.4023"></rect><polygon class="cls-1" points="30.243 62.784 28.243 62.784 28.243 29.882 33.593 29.882 33.593 31.882 30.243 31.882 30.243 62.784"></polygon><polygon class="cls-1" points="24.442 62.784 22.442 62.784 22.442 42.032 14.291 42.032 14.291 62.784 12.291 62.784 12.291 40.032 24.442 40.032 24.442 62.784"></polygon><rect class="cls-1" x="6.0405" y="64.6846" width="65.2559" height="2"></rect><path class="cls-1" d="M50.27,43.4824A14.7759,14.7759,0,1,1,65.0454,28.707,14.7922,14.7922,0,0,1,50.27,43.4824Zm0-27.5517A12.7759,12.7759,0,1,0,63.0454,28.707,12.7907,12.7907,0,0,0,50.27,15.9307Z"></path><rect class="cls-1" x="38.3936" y="42.4824" width="2" height="20.3018"></rect><path class="cls-1" d="M70.5347,53.5957a3.8866,3.8866,0,0,1-2.7578-1.1406l-11.189-11.19,1.4141-1.414L69.1909,51.041a1.9005,1.9005,0,0,0,2.688-2.6875L60.8447,37.3193l1.4141-1.414L73.293,46.94a3.8984,3.8984,0,0,1-2.7583,6.6562Z"></path></svg> 