<svg xmlns="http://www.w3.org/2000/svg" viewBox="0 0 102 97.35">
  <g>
    <g>
      <path class="cls-2"
        d="M58.59,56.74a3.48,3.48,0,0,0-1.44-2.53,4.22,4.22,0,0,0-2.65-.9c-2.27,0-3.89,2.38-4.14,4.7A8.92,8.92,0,0,0,51,62.48a4.25,4.25,0,0,0,1.45,1.89,4.58,4.58,0,0,0,2.17.69,4.92,4.92,0,0,0,2.55-.69,3.52,3.52,0,0,0,1.44-2.66C58.71,60.71,58.59,57.53,58.59,56.74Zm6.55-17.63V69.89H59.73l-.62-3.06a6.05,6.05,0,0,1-4,3.06c-2.38.47-5.23.71-7.74-1.63s-3.53-4-3.59-10.51,6-9.51,8.61-9.51,4.16,0,6.26,2.49V39.11Z" />
      <path class="cls-2"
        d="M15.32,69.78V53.59H11.39V48.78h3.8V45.86c.44-3.68,1.87-6.15,4.29-7.39A12.62,12.62,0,0,1,29,37.83l-1.68,5.39a9.57,9.57,0,0,0-2.56-.3,2.92,2.92,0,0,0-3,2.94v2.92h4v4.91h-4V69.78Z" />
      <polygon class="cls-2"
        points="27.84 48.82 40.8 48.82 40.8 69.8 38.54 69.8 38.54 60.71 36.78 60.71 36.78 69.8 34.26 69.8 34.26 60.67 34.26 53.77 27.84 53.77 27.84 48.82" />
      <circle class="cls-2" cx="37.41" cy="42.07" r="3.69" />
      <path class="cls-2"
        d="M83.07,56.66a4.57,4.57,0,0,0-1.43-2.53,4.25,4.25,0,0,0-2.66-.9c-2.26,0-3.89,2.38-4.13,4.7a8.9,8.9,0,0,0,.62,4.46,4.22,4.22,0,0,0,1.45,1.9,4.71,4.71,0,0,0,2.17.68,5.06,5.06,0,0,0,2.55-.68,3.52,3.52,0,0,0,1.43-2.67A41.56,41.56,0,0,0,83.07,56.66ZM79.28,70.39A11.08,11.08,0,1,1,90.36,59.31,11.08,11.08,0,0,1,79.28,70.39Z" />
    </g>
    <path class="cls-2" d="M102,97.35H0V0H102ZM4.38,93H97.62V4.38H4.38Z" />
    <rect class="cls-2" x="6.84" y="13.95" width="88.32" height="4.38" />
    <rect class="cls-2" x="9.17" y="6.97" width="4.65" height="4.38" />
    <rect class="cls-2" x="16.14" y="6.97" width="4.65" height="4.38" />
    <rect class="cls-2" x="23.11" y="6.97" width="4.65" height="4.38" />
  </g>
</svg>
