<?xml version="1.0" encoding="UTF-8"?> <svg xmlns="http://www.w3.org/2000/svg" id="Layer_1" data-name="Layer 1" width="80" height="80" viewBox="0 0 80 80"><defs><style>.cls-1{fill:#1ff1fc;}</style></defs><title>Blue</title><path class="cls-1" d="M23.92,20.5244H4.3926V6.8394H23.92Zm-17.5273-2H21.92V8.8394H6.3926Z"></path><path class="cls-1" d="M48.75,20.5244H29.2227V6.8394H48.75Zm-17.5273-2H46.75V8.8394H31.2227Z"></path><path class="cls-1" d="M73.58,20.5244H54.0527V6.8394H73.58Zm-17.5274-2H71.58V8.8394H56.0527Z"></path><rect class="cls-1" x="8.3135" y="22.9063" width="11.6846" height="2"></rect><rect class="cls-1" x="13.1563" y="19.5244" width="2" height="4.3818"></rect><rect class="cls-1" x="33.1436" y="22.9063" width="11.6855" height="2"></rect><rect class="cls-1" x="37.9863" y="19.5244" width="2" height="4.3818"></rect><rect class="cls-1" x="57.9746" y="22.9063" width="11.6846" height="2"></rect><rect class="cls-1" x="62.8164" y="19.5244" width="2" height="4.3818"></rect><polygon class="cls-1" points="34.144 48.736 32.144 48.736 32.144 38.926 23.673 30.456 25.087 29.042 34.144 38.098 34.144 48.736"></polygon><rect class="cls-1" x="37.9863" y="28.2881" width="2" height="23.3696"></rect><polygon class="cls-1" points="45.829 48.736 43.829 48.736 43.829 38.052 54.402 28.989 55.703 30.508 45.829 38.972 45.829 48.736"></polygon><rect class="cls-1" x="32.1436" y="51.6577" width="2" height="2.9214"></rect><rect class="cls-1" x="32.1436" y="57.5" width="2" height="2.9214"></rect><rect class="cls-1" x="37.9863" y="54.5791" width="2" height="2.9209"></rect><rect class="cls-1" x="37.9863" y="60.4214" width="2" height="2.9214"></rect><rect class="cls-1" x="43.8291" y="51.6577" width="2" height="2.9214"></rect><rect class="cls-1" x="37.9863" y="66.2637" width="2" height="2.9214"></rect><path class="cls-1" d="M58.9746,67.7246h-2V45.8154a.4614.4614,0,0,0-.4609-.4609H49.2109v-2h7.3028a2.4634,2.4634,0,0,1,2.4609,2.4609Z"></path><path class="cls-1" d="M20.998,67.7246h-2V45.8154a2.4635,2.4635,0,0,1,2.461-2.4609h7.3027v2H21.459a.4615.4615,0,0,0-.461.4609Z"></path><path class="cls-1" d="M61.6162,74.5669h-45.26l-1.74-5.22V66.7246h48.74v2.6226Zm-43.8183-2H60.1748l1.1816-3.544v-.2983h-44.74v.2983Z"></path></svg> 