<?xml version="1.0" encoding="UTF-8"?> <svg xmlns="http://www.w3.org/2000/svg" id="Layer_1" data-name="Layer 1" width="80" height="80" viewBox="0 0 80 80"><defs><style>.cls-1{fill:#1ff1fc;}</style></defs><title>Blue</title><path class="cls-1" d="M71.8467,70.3105H8.9414V10.3047H71.8467Zm-60.9053-2H69.8467V12.3047H10.9414Z"></path><rect class="cls-1" x="12.8418" y="19.0059" width="55.1045" height="2"></rect><rect class="cls-1" x="14.292" y="14.6553" width="2.8994" height="2"></rect><rect class="cls-1" x="18.6416" y="14.6553" width="2.9004" height="2"></rect><rect class="cls-1" x="22.9922" y="14.6553" width="2.9004" height="2"></rect><polygon class="cls-1" points="47.194 62.06 45.194 62.06 45.194 47.108 37.044 47.108 37.044 62.06 35.044 62.06 35.044 45.108 47.194 45.108 47.194 62.06"></polygon><polygon class="cls-1" points="57.346 62.06 55.346 62.06 55.346 35.507 47.194 35.507 47.194 62.06 45.194 62.06 45.194 33.507 57.346 33.507 57.346 62.06"></polygon><polygon class="cls-1" points="37.044 62.06 35.044 62.06 35.044 51.458 26.893 51.458 26.893 62.06 24.893 62.06 24.893 49.458 37.044 49.458 37.044 62.06"></polygon><rect class="cls-1" x="20.0918" y="61.0596" width="42.0537" height="2"></rect><polygon class="cls-1" points="41.394 37.407 39.394 37.407 39.394 29.707 31.693 29.707 31.693 27.707 41.394 27.707 41.394 37.407"></polygon><rect class="cls-1" x="20.2641" y="36.045" width="23.5831" height="1.9998" transform="translate(-16.8058 33.517) rotate(-45)"></rect></svg> 