<?xml version="1.0" encoding="UTF-8"?> <svg xmlns="http://www.w3.org/2000/svg" id="Layer_1" data-name="Layer 1" width="80" height="80" viewBox="0 0 80 80"><defs><style>.cls-1{fill:#1ff1fc;}</style></defs><title>Blue</title><path class="cls-1" d="M65.8652,63.835H45.9307a2.4264,2.4264,0,0,1-2.4239-2.4239V45.748a2.4264,2.4264,0,0,1,2.4239-2.4238H65.8652A2.4265,2.4265,0,0,1,68.29,45.748V61.4111A2.4266,2.4266,0,0,1,65.8652,63.835ZM45.9307,45.3242a.4244.4244,0,0,0-.4239.4238V61.4111a.4245.4245,0,0,0,.4239.4239H65.8652a.4249.4249,0,0,0,.4244-.4239V45.748a.4248.4248,0,0,0-.4244-.4238Z"></path><path class="cls-1" d="M64.0176,45.3242H47.7788V37.2051a8.1194,8.1194,0,1,1,16.2388,0Zm-14.2388-2H62.0176V37.2051a6.1194,6.1194,0,1,0-12.2388,0Z"></path><polygon class="cls-1" points="58.322 73.803 10.757 73.803 10.757 14.006 18.463 6.303 58.322 6.303 58.322 27.237 56.322 27.237 56.322 8.303 19.291 8.303 12.757 14.834 12.757 71.803 56.322 71.803 56.322 65.683 58.322 65.683 58.322 73.803"></polygon><polygon class="cls-1" points="22.725 18.271 14.605 18.271 14.605 16.271 20.725 16.271 20.725 10.15 22.725 10.15 22.725 18.271"></polygon></svg> 