<?xml version="1.0" encoding="UTF-8"?>
<svg width="75px" height="75px" viewBox="0 0 75 75" version="1.1" xmlns="http://www.w3.org/2000/svg" xmlns:xlink="http://www.w3.org/1999/xlink">
    <!-- Generator: Sketch 50.2 (55047) - http://www.bohemiancoding.com/sketch -->
    <title>fido-dark-icn</title>
    <desc>Created with Sketch.</desc>
    <defs></defs>
    <g id="fido-dark-icn" stroke="none" stroke-width="1" fill="none" fill-rule="evenodd">
        <g id="Group" transform="translate(4.000000, 24.000000)" fill="#011638">
            <path d="M44.5199424,1.59436678 L44.5199424,26.5970641 L40.1228262,26.5970641 L39.6212993,24.1077303 C38.7582717,25.512733 37.6828125,26.3425109 36.3949219,26.5970641 C34.4630859,26.9788937 32.1519531,27.1701172 30.1115234,25.2664063 C28.0710938,23.3626953 27.2417969,22.0359375 27.1972656,16.7337891 C27.1527344,11.4316406 32.1132812,9.0140625 34.1896484,9.0140625 C36.2660156,9.0140625 37.5664062,9.0140625 39.2679687,11.0365234 C39.2679687,11.0365234 39.2679687,7.88913788 39.2679687,1.59436678 L44.5199424,1.59436678 Z M39.1978516,15.9171875 C39.1978516,15.2752441 38.7183375,14.3190697 38.0308594,13.8599609 C37.4773054,13.4902888 36.9194002,13.1300781 35.874509,13.1300781 C34.0371855,13.1300781 32.7169313,15.0633015 32.5193359,16.9498047 C32.4357006,17.7482971 32.4218841,19.3807376 33.0210938,20.5726079 C33.3977778,21.3218593 33.6234461,21.7133479 34.1990234,22.1099609 C34.4104403,22.255642 35.1717207,22.6520478 35.9606471,22.6701172 C36.9729925,22.6933037 37.650293,22.3044922 38.0308594,22.1099609 C38.5495605,21.7149902 39.0424316,21.1879883 39.1978516,19.946875 C39.2995604,19.1346742 39.1978516,16.5591309 39.1978516,15.9171875 Z" id="Combined-Shape"></path>
            <path d="M4.06363932,26.5011393 L4.06363932,13.3568581 L0.865954827,13.3568581 L0.865954827,9.45198548 L3.95642709,9.45198548 L3.95642709,7.08015665 C4.31051682,4.08688884 5.47224507,2.08655428 7.44161184,1.07915296 C10.395662,-0.431949013 13.3450863,-0.00894325658 15.1733141,0.557668586 C15.1733141,0.557668586 14.718099,2.01668723 13.8076686,4.93472451 C13.2252947,4.77052495 12.5315241,4.68842516 11.7263569,4.68842516 C11.7263569,4.68842516 9.2889597,4.68842516 9.2889597,7.08015665 L9.2889597,9.45198548 L12.560382,9.45198548 L12.560382,13.4382554 L9.2889597,13.4382554 L9.2889597,26.5011393 L4.06363932,26.5011393 Z" id="Path-4"></path>
            <polygon id="Path-5" points="14.2292352 9.48478618 24.748972 9.48478618 24.748972 26.5170641 22.9140625 26.5170641 22.9140625 19.1410362 21.4884868 19.1410362 21.4884868 26.5170641 19.4369879 26.5170641 19.4369879 19.1048895 19.4369879 13.5 14.2292352 13.5"></polygon>
            <circle id="Oval" cx="22" cy="4" r="3"></circle>
            <path d="M56,27 C51.0294373,27 47,22.9705627 47,18 C47,13.0294373 51.0294373,9 56,9 C60.9705627,9 65,13.0294373 65,18 C65,22.9705627 60.9705627,27 56,27 Z M59.0814453,15.8490234 C58.7617693,14.7836116 58.3727719,14.0978694 57.9144531,13.7917969 C57.3608991,13.4221247 56.8029939,13.0619141 55.7581027,13.0619141 C53.9207792,13.0619141 52.6005251,14.9951375 52.4029297,16.8816406 C52.3192943,17.6801331 52.3054779,19.3125735 52.9046875,20.5044439 C53.2813716,21.2536952 53.5070399,21.6451838 54.0826172,22.0417969 C54.2940341,22.1874779 55.0553145,22.5838837 55.8442408,22.6019531 C56.8565863,22.6251397 57.5338867,22.2363281 57.9144531,22.0417969 C58.4331543,21.6468262 58.9260254,21.1198242 59.0814453,19.8787109 C59.1492512,19.3372437 59.1492512,17.9940146 59.0814453,15.8490234 Z" id="Combined-Shape"></path>
        </g>
    </g>
</svg>