<?xml version="1.0" encoding="UTF-8"?> <svg xmlns="http://www.w3.org/2000/svg" id="Layer_1" data-name="Layer 1" width="80" height="80" viewBox="0 0 80 80"><defs><style>.cls-1{fill:#021637;}</style></defs><title>Navy</title><polygon class="cls-1" points="72.678 65.972 53.167 65.972 53.167 63.972 70.678 63.972 70.678 9.016 7.178 9.016 7.178 63.972 24.689 63.972 24.689 65.972 5.178 65.972 5.178 7.016 72.678 7.016 72.678 65.972"></polygon><rect class="cls-1" x="6.1782" y="15.5586" width="65.4995" height="2"></rect><rect class="cls-1" x="10.4502" y="11.2871" width="2.8477" height="2"></rect><rect class="cls-1" x="16.1455" y="11.2871" width="2.8481" height="2"></rect><rect class="cls-1" x="21.8413" y="11.2871" width="2.8477" height="2"></rect><path class="cls-1" d="M48.8955,74.5146H28.9609a2.4263,2.4263,0,0,1-2.4238-2.4238V57.8525a2.4272,2.4272,0,0,1,2.4238-2.4248H48.8955a2.4272,2.4272,0,0,1,2.4238,2.4248V72.0908A2.4263,2.4263,0,0,1,48.8955,74.5146ZM28.9609,57.4277a.4247.4247,0,0,0-.4238.4248V72.0908a.4244.4244,0,0,0,.4238.4238H48.8955a.4243.4243,0,0,0,.4238-.4238V57.8525a.4246.4246,0,0,0-.4238-.4248Z"></path><path class="cls-1" d="M47.0479,57.4277H30.8086V49.3086a8.12,8.12,0,0,1,16.2393,0Zm-14.2393-2H45.0479V49.3086a6.12,6.12,0,0,0-12.2393,0Z"></path><path class="cls-1" d="M28.5371,38.917H12.2979V22.6787H28.5371Zm-14.2392-2H26.5371V24.6787H14.2979Z"></path><rect class="cls-1" x="34.6563" y="28.374" width="29.9023" height="2"></rect><rect class="cls-1" x="34.6563" y="22.6787" width="29.9023" height="2"></rect><rect class="cls-1" x="34.6563" y="34.0693" width="19.9351" height="2"></rect></svg> 